<svg width="192" height="54" viewBox="0 0 192 54" fill="none" xmlns="http://www.w3.org/2000/svg">
<path fill-rule="evenodd" clip-rule="evenodd" d="M10.3486 27.633C8.40082 27.633 6.6351 27.2144 5.05142 26.377C3.48593 25.5215 2.24811 24.3473 1.33794 22.8547C0.445981 21.3438 0 19.6418 0 17.7487C0 15.8555 0.445981 14.1626 1.33794 12.6699C2.24811 11.1591 3.48593 9.98494 5.05142 9.14759C6.6351 8.29204 8.40993 7.86426 10.3759 7.86426C12.0324 7.86426 13.5251 8.15551 14.8539 8.73802C16.2009 9.32052 17.3295 10.1579 18.2397 11.2501L15.4 13.8713C14.1076 12.3787 12.5057 11.6323 10.5943 11.6323C9.41111 11.6323 8.35532 11.8963 7.42695 12.4242C6.49858 12.9339 5.77045 13.6529 5.24255 14.5813C4.73286 15.5096 4.47801 16.5654 4.47801 17.7487C4.47801 18.9319 4.73286 19.9877 5.24255 20.916C5.77045 21.8444 6.49858 22.5725 7.42695 23.1004C8.35532 23.6101 9.41111 23.865 10.5943 23.865C12.5057 23.865 14.1076 23.1095 15.4 21.5986L18.2397 24.2199C17.3295 25.3303 16.2009 26.1768 14.8539 26.7593C13.5069 27.3418 12.0051 27.633 10.3486 27.633ZM37.1183 23.7557V27.3054H22.319V8.19192H36.7633V11.7416H26.7151V15.8919H35.5892V19.3323H26.7151V23.7557H37.1183ZM59.2599 27.3054V8.19192H54.8911V19.7965L45.3889 8.19192H41.7301V27.3054H46.0989V15.7008L55.6283 27.3054H59.2599ZM68.8335 11.7962H62.7171V8.19192H79.3732V11.7962H73.2569V21.6167H68.8335V11.7962ZM87.2688 8.19192H82.8454V27.3054H87.2688V8.19192ZM102.044 27.633C100.096 27.633 98.3307 27.2144 96.747 26.377C95.1815 25.5215 93.9437 24.3473 93.0335 22.8547C92.1416 21.3438 91.6956 19.6418 91.6956 17.7487C91.6956 15.8555 92.1416 14.1626 93.0335 12.6699C93.9437 11.1591 95.1815 9.98494 96.747 9.14759C98.3307 8.29204 100.106 7.86426 102.071 7.86426C103.728 7.86426 105.221 8.15551 106.549 8.73802C107.897 9.32052 109.025 10.1579 109.935 11.2501L107.096 13.8713C105.803 12.3787 104.201 11.6323 102.29 11.6323C101.107 11.6323 100.051 11.8963 99.1225 12.4242C98.1942 12.9339 97.466 13.6529 96.9381 14.5813C96.4284 15.5096 96.1736 16.5654 96.1736 17.7487C96.1736 18.9319 96.4284 19.9877 96.9381 20.916C97.466 21.8444 98.1942 22.5725 99.1225 23.1004C100.051 23.6101 101.107 23.865 102.29 23.865C104.201 23.865 105.803 23.1095 107.096 21.5986L109.935 24.2199C109.025 25.3303 107.897 26.1768 106.549 26.7593C105.202 27.3418 103.701 27.633 102.044 27.633ZM168.208 27.3054L164.522 21.9809H164.303H160.453V27.3054H156.03V8.19191H164.303C165.996 8.19191 167.462 8.47406 168.7 9.03836C169.956 9.60266 170.92 10.4036 171.594 11.4412C172.267 12.4788 172.604 13.7075 172.604 15.1274C172.604 16.5472 172.258 17.7759 171.567 18.8135C170.893 19.8329 169.928 20.6157 168.672 21.1618L172.959 27.3054H168.208ZM168.126 15.1274C168.126 14.0534 167.78 13.2342 167.089 12.6699C166.397 12.0874 165.387 11.7962 164.058 11.7962H160.453V18.4586H164.058C165.387 18.4586 166.397 18.1673 167.089 17.5848C167.78 17.0023 168.126 16.1832 168.126 15.1274ZM192 23.7557V27.3054H177.201V8.19191H191.645V11.7415H181.597V15.8919H190.471V19.3323H181.597V23.7557H192ZM73.3823 22.7545H68.8314V27.3053H73.3823V22.7545Z" fill="white"/>
<path d="M148.883 19.402H143.804C143.804 11.4917 137.391 5.07905 129.481 5.07905V0C140.197 0 148.883 8.68658 148.883 19.402ZM129.481 5.07905V10.1581C124.152 10.1581 119.831 14.4786 119.831 19.8083H114.752C114.752 11.6736 121.346 5.07905 129.481 5.07905ZM129.075 34.1312V29.0521C134.405 29.0521 138.725 24.7317 138.725 19.402H143.804C143.804 27.5367 137.21 34.1312 129.075 34.1312ZM119.831 19.8083H124.91C124.91 22.3325 126.55 23.9721 129.075 23.9721V29.0511C123.745 29.0511 119.831 25.1378 119.831 19.8083Z" fill="#1F50FE"/>
<path d="M48.9503 53.5093C48.124 53.5093 47.3625 53.3799 46.6656 53.1211C45.9787 52.8523 45.3764 52.474 44.8588 51.9862C44.3511 51.4984 43.9529 50.926 43.6642 50.269C43.3855 49.6119 43.2461 48.8902 43.2461 48.1038C43.2461 47.3173 43.3855 46.5956 43.6642 45.9386C43.9529 45.2815 44.3561 44.7091 44.8737 44.2213C45.3914 43.7336 45.9986 43.3602 46.6955 43.1014C47.3923 42.8326 48.1589 42.6982 48.9951 42.6982C49.9209 42.6982 50.7521 42.8525 51.4888 43.1611C52.2354 43.4697 52.8626 43.9177 53.3703 44.5051L51.8173 45.9386C51.439 45.5404 51.0259 45.2467 50.5779 45.0576C50.1299 44.8585 49.6421 44.7589 49.1145 44.7589C48.6068 44.7589 48.1439 44.8386 47.7258 44.9978C47.3077 45.1571 46.9444 45.3861 46.6357 45.6847C46.3371 45.9834 46.1032 46.3368 45.9339 46.7449C45.7746 47.1531 45.695 47.606 45.695 48.1038C45.695 48.5916 45.7746 49.0395 45.9339 49.4477C46.1032 49.8558 46.3371 50.2142 46.6357 50.5228C46.9444 50.8215 47.3027 51.0504 47.7109 51.2097C48.129 51.369 48.5869 51.4486 49.0847 51.4486C49.5625 51.4486 50.0254 51.374 50.4734 51.2246C50.9313 51.0654 51.3743 50.8016 51.8024 50.4332L53.1761 52.1803C52.6087 52.6084 51.9467 52.9369 51.1901 53.1659C50.4435 53.3948 49.6969 53.5093 48.9503 53.5093ZM50.9661 51.8667V47.9395H53.1761V52.1803L50.9661 51.8667Z" fill="#1F50FE"/>
<path d="M64.3827 53.3301V42.8774H68.9072C69.8429 42.8774 70.6493 43.0317 71.3262 43.3403C72.0032 43.639 72.5258 44.072 72.8941 44.6395C73.2625 45.2069 73.4466 45.8838 73.4466 46.6703C73.4466 47.4467 73.2625 48.1187 72.8941 48.6861C72.5258 49.2436 72.0032 49.6717 71.3262 49.9703C70.6493 50.269 69.8429 50.4183 68.9072 50.4183H65.7266L66.8017 49.3581V53.3301H64.3827ZM71.0276 53.3301L68.4144 49.5373H70.9977L73.6408 53.3301H71.0276ZM66.8017 49.6269L65.7266 48.492H68.7728C69.5194 48.492 70.0769 48.3327 70.4452 48.0142C70.8136 47.6857 70.9977 47.2377 70.9977 46.6703C70.9977 46.0929 70.8136 45.6449 70.4452 45.3263C70.0769 45.0078 69.5194 44.8485 68.7728 44.8485H65.7266L66.8017 43.6987V49.6269Z" fill="#1F50FE"/>
<path d="M89.3997 53.5093C88.5734 53.5093 87.8069 53.3749 87.1001 53.1061C86.4032 52.8373 85.796 52.4591 85.2783 51.9713C84.7706 51.4835 84.3724 50.9111 84.0838 50.254C83.805 49.597 83.6656 48.8803 83.6656 48.1038C83.6656 47.3273 83.805 46.6105 84.0838 45.9535C84.3724 45.2965 84.7756 44.7241 85.2933 44.2363C85.8109 43.7485 86.4182 43.3702 87.115 43.1014C87.8119 42.8326 88.5684 42.6982 89.3848 42.6982C90.211 42.6982 90.9676 42.8326 91.6545 43.1014C92.3513 43.3702 92.9536 43.7485 93.4613 44.2363C93.979 44.7241 94.3821 45.2965 94.6708 45.9535C94.9595 46.6006 95.1039 47.3173 95.1039 48.1038C95.1039 48.8803 94.9595 49.602 94.6708 50.269C94.3821 50.926 93.979 51.4984 93.4613 51.9862C92.9536 52.464 92.3513 52.8373 91.6545 53.1061C90.9676 53.3749 90.216 53.5093 89.3997 53.5093ZM89.3848 51.4486C89.8526 51.4486 90.2807 51.369 90.6689 51.2097C91.0671 51.0504 91.4156 50.8215 91.7142 50.5228C92.0129 50.2242 92.2418 49.8708 92.4011 49.4626C92.5703 49.0545 92.6549 48.6015 92.6549 48.1038C92.6549 47.606 92.5703 47.1531 92.4011 46.7449C92.2418 46.3368 92.0129 45.9834 91.7142 45.6847C91.4255 45.3861 91.0821 45.1571 90.6839 44.9978C90.2857 44.8386 89.8526 44.7589 89.3848 44.7589C88.9169 44.7589 88.4838 44.8386 88.0856 44.9978C87.6974 45.1571 87.3539 45.3861 87.0553 45.6847C86.7566 45.9834 86.5227 46.3368 86.3535 46.7449C86.1942 47.1531 86.1146 47.606 86.1146 48.1038C86.1146 48.5916 86.1942 49.0445 86.3535 49.4626C86.5227 49.8708 86.7517 50.2242 87.0404 50.5228C87.339 50.8215 87.6874 51.0504 88.0856 51.2097C88.4838 51.369 88.9169 51.4486 89.3848 51.4486Z" fill="#1F50FE"/>
<path d="M110.525 53.5093C109.042 53.5093 107.882 53.0962 107.046 52.2699C106.21 51.4436 105.792 50.264 105.792 48.7309V42.8774H108.211V48.6413C108.211 49.6368 108.415 50.3536 108.823 50.7916C109.231 51.2296 109.804 51.4486 110.54 51.4486C111.277 51.4486 111.849 51.2296 112.257 50.7916C112.666 50.3536 112.87 49.6368 112.87 48.6413V42.8774H115.259V48.7309C115.259 50.264 114.841 51.4436 114.005 52.2699C113.168 53.0962 112.009 53.5093 110.525 53.5093Z" fill="#1F50FE"/>
<path d="M126.609 53.3301V42.8774H131.133C132.069 42.8774 132.875 43.0317 133.552 43.3403C134.229 43.639 134.752 44.072 135.12 44.6395C135.489 45.2069 135.673 45.8838 135.673 46.6703C135.673 47.4467 135.489 48.1187 135.12 48.6861C134.752 49.2536 134.229 49.6916 133.552 50.0002C132.875 50.2988 132.069 50.4482 131.133 50.4482H127.953L129.028 49.3581V53.3301H126.609ZM129.028 49.6269L127.953 48.4771H130.999C131.746 48.4771 132.303 48.3178 132.671 47.9992C133.04 47.6807 133.224 47.2377 133.224 46.6703C133.224 46.0929 133.04 45.6449 132.671 45.3263C132.303 45.0078 131.746 44.8485 130.999 44.8485H127.953L129.028 43.6987V49.6269Z" fill="#1F50FE"/>
</svg>
